<?xml version="1.0" standalone="no"?>
<!DOCTYPE svg PUBLIC "-//W3C//DTD SVG 20010904//EN"
 "http://www.w3.org/TR/2001/REC-SVG-20010904/DTD/svg10.dtd">
<svg version="1.0" xmlns="http://www.w3.org/2000/svg"
 width="1080.000000pt" height="1080.000000pt" viewBox="0 0 1080.000000 1080.000000"
 preserveAspectRatio="xMidYMid meet">
<metadata>
Created by potrace 1.14, written by Peter Selinger 2001-2017
</metadata>
<g transform="translate(0.000000,1080.000000) scale(0.100000,-0.100000)"
fill="#000000" stroke="none">
<path d="M0 5400 l0 -5400 5400 0 5400 0 0 5400 0 5400 -5400 0 -5400 0 0
-5400z m5476 3369 c370 -276 717 -710 939 -1172 82 -173 112 -254 98 -268 -6
-6 -59 -17 -119 -24 -60 -8 -124 -19 -143 -25 -40 -11 -67 0 -77 32 -17 59
-150 319 -214 423 -126 202 -238 343 -421 528 -82 82 -123 117 -139 117 -43 0
-294 -266 -447 -472 -65 -89 -187 -294 -249 -421 -159 -326 -251 -658 -287
-1035 -7 -73 -17 -136 -23 -141 -21 -20 -292 -171 -308 -171 -31 0 -18 313 23
572 115 712 482 1403 994 1869 111 101 282 239 297 239 4 0 38 -23 76 -51z
m1223 -2228 c22 -14 29 -96 30 -321 2 -411 -71 -802 -224 -1205 -55 -146 -214
-451 -311 -595 -147 -220 -330 -440 -366 -440 -26 0 -51 14 -128 73 -88 68
-120 98 -120 115 0 8 28 47 63 86 205 233 342 437 462 690 198 414 290 824
286 1276 -1 113 -3 223 -4 245 -2 34 2 41 24 52 55 27 257 43 288 24z m-3459
-160 c0 -5 -7 -15 -17 -22 -42 -35 -148 -193 -197 -293 -105 -215 -131 -344
-123 -606 6 -204 33 -321 112 -487 70 -147 109 -204 228 -335 l98 -108 -225 0
-225 0 -40 53 c-137 183 -247 467 -282 723 -14 106 -6 342 17 472 35 202 111
401 221 575 l23 37 205 0 c113 0 205 -4 205 -9z m2678 -48 c53 -31 124 -72
157 -90 91 -52 98 -62 97 -130 -3 -100 -14 -227 -23 -250 -11 -30 -36 -29 -81
2 -20 14 -40 25 -43 25 -3 0 -22 11 -43 23 -20 13 -129 77 -242 142 -113 65
-263 152 -335 193 -71 42 -154 88 -182 104 -29 16 -53 31 -53 34 0 2 146 4
325 4 l325 0 98 -57z m2104 -28 c88 -146 161 -348 194 -535 8 -47 17 -157 21
-245 5 -147 4 -171 -21 -299 -30 -155 -48 -206 -70 -206 -8 0 -32 22 -53 48
-21 26 -73 89 -117 139 l-78 91 -3 213 c-2 241 -10 285 -75 452 -48 125 -118
243 -200 343 -33 40 -60 75 -60 78 0 4 93 5 207 4 l207 -3 48 -80z m-3013 -86
c95 -54 141 -86 141 -98 0 -10 -23 -30 -57 -50 -32 -19 -83 -48 -113 -66 -30
-18 -129 -75 -220 -127 -91 -52 -226 -130 -300 -173 -74 -43 -225 -130 -335
-193 -349 -201 -496 -304 -700 -488 -65 -59 -120 -101 -128 -98 -33 12 -136
227 -137 285 0 30 85 111 250 240 155 121 268 192 690 434 107 61 265 152 350
202 85 49 193 111 240 138 47 27 94 54 105 61 39 25 72 15 214 -67z m2030
-530 c785 -469 1330 -1213 1525 -2080 42 -187 59 -293 54 -339 -3 -30 -9 -38
-49 -58 -133 -66 -482 -169 -694 -206 -206 -35 -403 -49 -625 -43 -187 5 -428
26 -482 43 -10 3 -18 13 -18 21 0 19 236 260 262 269 10 3 152 7 316 8 163 2
335 8 382 15 176 25 484 101 529 130 21 13 4 96 -58 291 -63 199 -96 281 -187
464 -228 455 -578 843 -1021 1130 -120 77 -116 67 -83 236 11 56 20 111 20
124 0 23 17 46 33 46 6 0 49 -23 96 -51z m-2541 -241 c5 -7 22 -53 37 -103 37
-124 112 -309 175 -435 282 -566 737 -1022 1303 -1306 59 -30 111 -62 114 -71
4 -11 -28 -49 -110 -130 -100 -99 -119 -114 -139 -108 -30 10 -285 156 -363
208 -245 165 -574 469 -748 693 -225 288 -404 617 -521 952 -42 122 -45 152
-13 171 25 16 116 70 192 112 58 33 59 33 73 17z m3006 -894 c27 -10 18 -24
-15 -24 -27 0 -30 2 -19 15 14 17 13 17 34 9z m-4842 -86 c19 -29 63 -86 97
-126 33 -41 61 -80 61 -88 0 -8 -21 -58 -46 -112 -81 -173 -171 -426 -210
-587 -23 -98 -22 -101 44 -125 72 -27 315 -85 447 -106 139 -22 528 -30 708
-15 339 29 667 123 1010 289 149 71 160 75 182 62 57 -36 235 -195 233 -208
-3 -16 -147 -100 -268 -158 -471 -225 -941 -334 -1435 -334 -376 1 -744 64
-1094 188 -179 64 -205 79 -209 117 -11 89 82 498 163 720 91 248 232 535 264
535 11 0 33 -22 53 -52z"/>
</g>
</svg>
